<svg width="532" height="532" viewBox="0 0 532 532" fill="none" xmlns="http://www.w3.org/2000/svg">
<circle cx="266" cy="266" r="266" fill="white"/>
<path d="M156.785 107.59C165.672 112.35 173.025 117.633 178.845 123.44C199.459 143.993 220.045 164.573 240.605 185.18C241.452 186.02 242.332 187.38 243.245 189.26C245.092 193.78 244.899 198.283 242.665 202.77C235.755 212.33 225.905 212.61 217.865 204.72C204.012 191.127 190.265 177.43 176.625 163.63C161.135 148.16 149.045 133.76 126.665 127.85C126.586 127.828 126.503 127.827 126.423 127.848C126.344 127.869 126.271 127.911 126.212 127.97C126.154 128.029 126.111 128.102 126.089 128.183C126.066 128.263 126.065 128.349 126.085 128.43C129.975 143.17 136.805 152.53 148.185 164.24C155.972 172.247 163.945 180.35 172.105 188.55C181.759 198.377 191.599 208.407 201.625 218.64C204.665 221.74 206.575 224.26 207.355 226.2C212.075 237.89 200.125 249.95 188.375 245.69C182.155 243.43 173.605 232.92 168.625 227.87L129.835 188.46C124.895 183.507 121.499 179.99 119.645 177.91C103.039 159.223 94.4919 137.417 94.0053 112.49C93.9453 109.363 94.3986 106.773 95.3653 104.72C96.7586 101.793 98.7053 99.5667 101.205 98.04C103.365 97.06 105.085 96.24 107.455 96.16C124.862 95.58 141.305 99.39 156.785 107.59Z" fill="#0D184F"/>
<path d="M333.555 254.691L215.065 373.951C214.792 374.224 214.785 374.504 215.045 374.791L217.625 377.681C217.819 377.901 218.062 378.007 218.355 378.001C225.465 377.941 237.515 376.721 243.885 378.991C251.385 381.681 255.675 390.501 252.985 397.921C251.425 402.201 248.559 405.234 244.385 407.021C242.695 407.471 241.275 407.971 239.575 407.971C229.755 408.004 219.935 407.994 210.115 407.941C207.749 407.927 205.132 406.791 202.265 404.531L175.545 377.931C175.272 377.657 174.999 377.657 174.725 377.931L148.355 404.311C148.095 404.564 147.992 404.871 148.045 405.231C150.455 423.201 136.285 436.821 118.515 435.301C83.6253 429.221 91.5353 378.031 126.295 383.241C126.655 383.294 126.965 383.194 127.225 382.941L153.495 356.661C153.6 356.554 153.659 356.41 153.659 356.261C153.659 356.111 153.6 355.967 153.495 355.861C144.942 347.187 136.355 338.587 127.735 330.061C124.315 326.671 123.075 323.321 122.965 318.221C122.819 311.794 122.782 303.547 122.855 293.481C122.902 287.094 125.552 282.331 130.805 279.191C138.905 275.301 148.465 278.431 151.765 286.861C154.155 292.961 152.815 305.281 152.795 312.091C152.795 312.471 152.925 312.794 153.185 313.061L156.135 316.101C156.176 316.143 156.224 316.178 156.278 316.201C156.332 316.225 156.39 316.238 156.448 316.239C156.507 316.24 156.565 316.229 156.62 316.207C156.674 316.185 156.724 316.152 156.765 316.111L174.845 297.981L251.845 221.231C284.212 189.157 316.529 157.034 348.795 124.861C351.195 122.471 353.855 120.261 356.425 118.001C373.825 104.221 393.569 96.8975 415.655 96.0308C427.385 95.5708 435.415 100.221 435.115 112.701C434.375 143.191 422.425 164.901 401.605 185.941C378.925 208.847 356.242 231.764 333.555 254.691ZM333.555 182.431L237.965 277.681L178.285 337.211C178.177 337.317 178.115 337.463 178.113 337.616C178.111 337.769 178.169 337.918 178.275 338.031L192.765 352.781C192.88 352.894 193.034 352.958 193.195 352.958C193.356 352.958 193.511 352.894 193.625 352.781L236.145 310.041L336.395 209.061C352.702 192.761 368.935 176.411 385.095 160.011C393.835 151.137 399.779 140.624 402.925 128.471C403.019 128.104 402.885 127.964 402.525 128.051C390.485 130.891 380.152 136.437 371.525 144.691C362.139 153.671 349.482 166.251 333.555 182.431Z" fill="#0D184F"/>
<path d="M318.305 408.02C308.718 407.974 299.135 407.96 289.555 407.98C287.408 407.987 285.235 407.247 283.035 405.76C272.875 398.92 273.975 383.16 285.635 379.07C291.675 376.96 303.165 377.95 310.575 377.99C310.982 377.99 311.325 377.847 311.605 377.56L314.305 374.84C314.532 374.607 314.532 374.377 314.305 374.15C305.772 365.537 297.268 356.9 288.795 348.24C286.855 346.26 285.712 343.757 285.365 340.73C284.115 329.74 294.275 320.7 304.975 324.35C306.935 325.017 309.145 326.564 311.605 328.99C319.272 336.53 327.178 344.424 335.325 352.67C335.712 353.057 336.098 353.057 336.485 352.67L350.885 338.28C350.947 338.218 350.995 338.144 351.028 338.063C351.061 337.982 351.078 337.896 351.077 337.808C351.076 337.721 351.057 337.634 351.023 337.554C350.988 337.474 350.938 337.401 350.875 337.34C342.295 328.94 333.678 320.494 325.025 312C316.085 303.22 322.015 289.41 333.605 286.77C338.685 286.25 342.678 287.397 345.585 290.21C354.412 298.77 363.228 307.377 372.035 316.03C372.302 316.297 372.588 316.324 372.895 316.11C375.005 314.7 376.335 313.26 376.325 310.49C376.295 304.04 375.055 292.8 377.345 286.98C382.365 274.2 400.855 274.33 405.355 287.43C405.948 289.144 406.262 292.087 406.295 296.26C406.388 308 406.375 315.554 406.255 318.92C406.095 323.22 404.635 326.7 401.405 329.93C392.805 338.564 384.205 347.2 375.605 355.84C375.332 356.114 375.332 356.387 375.605 356.66L401.785 382.83C402.045 383.09 402.358 383.2 402.725 383.16C417.915 381.45 431.795 390.86 433.305 406.45C435.125 425.37 417.315 439.53 399.495 434.38C387.055 430.78 379.235 418.33 381.075 405.26C381.128 404.894 381.025 404.577 380.765 404.31L354.375 377.93C354.142 377.697 353.905 377.694 353.665 377.92C344.778 386.547 336.022 395.26 327.395 404.06C325.308 406.194 322.278 407.514 318.305 408.02Z" fill="#0D184F"/>
</svg>
